<svg xmlns="http://www.w3.org/2000/svg" width="25.6" height="20.781" viewBox="0 0 25.6 20.781">
  <defs>
    <style>
      .cls-1 {
        fill: #d98080;
        fill-rule: evenodd;
      }
    </style>
  </defs>
  <path id="twitter" class="cls-1" d="M1375.51,274.6a5.378,5.378,0,0,1,4.15,1.648,8.47,8.47,0,0,0,2.69-.908c0.22-.118.44-0.238,0.66-0.357a5.313,5.313,0,0,1-1.71,2.466,2.388,2.388,0,0,1-.57.408v0.013a9.784,9.784,0,0,0,2.97-.805v0.013a8.45,8.45,0,0,1-1.78,2.044c-0.27.217-.55,0.434-0.82,0.651a15.7,15.7,0,0,1-.24,3.373c-1.32,5.895-4.79,9.9-10.29,11.612a15.737,15.737,0,0,1-7.43.306,18.944,18.944,0,0,1-3.09-1.008,12.563,12.563,0,0,1-1.49-.767c-0.15-.094-0.31-0.188-0.46-0.281a8.643,8.643,0,0,0,1.68.064c0.51-.084,1.02-0.062,1.5-0.166a10.761,10.761,0,0,0,3.15-1.137,5.832,5.832,0,0,0,1.42-.933,4.454,4.454,0,0,1-1.56-.281,5.264,5.264,0,0,1-3.33-3.36,5.176,5.176,0,0,0,2.34-.1,3.79,3.79,0,0,1-1.71-.689,5.05,5.05,0,0,1-2.48-4.5l0.54,0.255a5.683,5.683,0,0,0,1.1.307,1.585,1.585,0,0,0,.72.063h-0.03c-0.26-.307-0.69-0.512-0.96-0.843a5.383,5.383,0,0,1-1.18-4.764,6.662,6.662,0,0,1,.57-1.367,0.034,0.034,0,0,1,.02.012,3.352,3.352,0,0,0,.48.55,9.8,9.8,0,0,0,1.56,1.494,15.488,15.488,0,0,0,6.42,3.1,9.979,9.979,0,0,0,2.36.307,4.9,4.9,0,0,1,.02-2.465,5.192,5.192,0,0,1,2.98-3.525,6.242,6.242,0,0,1,1.16-.359C1375.09,274.652,1375.3,274.626,1375.51,274.6Z" transform="translate(-1358.09 -274.594)"/>
</svg>
