<svg xmlns="http://www.w3.org/2000/svg" width="19.59" height="25.625" viewBox="0 0 19.59 25.625">
  <defs>
    <style>
      .cls-1 {
        fill: #d98080;
        fill-rule: evenodd;
      }
    </style>
  </defs>
  <path id="pinterest" class="cls-1" d="M1404.05,227.854c-0.21.833-.42,1.706-0.64,2.56a19.182,19.182,0,0,1-.71,2.47,12.576,12.576,0,0,1-2.05,3.521c-0.57.667-.45,0.4-0.62,0.365-0.14-.027-0.15-0.157-0.17-0.345a19.58,19.58,0,0,1,0-3.339,18.431,18.431,0,0,1,.59-3.471c0.49-2.063.95-4.087,1.44-6.164a1.448,1.448,0,0,0,.09-0.445,6.358,6.358,0,0,1-.43-1.7,5.4,5.4,0,0,1,.14-1.944,3.194,3.194,0,0,1,1.89-2.338,2.191,2.191,0,0,1,1.74.132,1.859,1.859,0,0,1,.86,1.246,4.424,4.424,0,0,1-.08,1.891c-0.26,1.219-.61,2.134-0.93,3.31a3.591,3.591,0,0,0-.19,1.812,2.048,2.048,0,0,0,.85,1.275,2.436,2.436,0,0,0,1.62.455,3.544,3.544,0,0,0,2.65-1.568,9.3,9.3,0,0,0,1.68-4.686,13.183,13.183,0,0,0,.07-2.014,5.482,5.482,0,0,0-1.13-3.117,5.326,5.326,0,0,0-2.51-1.711,8.362,8.362,0,0,0-3.75-.233,6.618,6.618,0,0,0-4.91,3.533,7.015,7.015,0,0,0-.84,3.41,4.416,4.416,0,0,0,.68,2.5c0.13,0.2.32,0.367,0.45,0.6a1.649,1.649,0,0,1-.12,1.164c-0.11.425-.12,1.012-0.61,1.022a1.459,1.459,0,0,1-.64-0.243,5.085,5.085,0,0,1-2.42-3.734,8.812,8.812,0,0,1,0-3.238,9.159,9.159,0,0,1,4.39-6.144,10.509,10.509,0,0,1,3.91-1.346c0.51-.074,1.03-0.1,1.6-0.131a9.644,9.644,0,0,1,4.33.809,8.761,8.761,0,0,1,2.98,2.146,8.136,8.136,0,0,1,1.84,3.309,8.019,8.019,0,0,1,.39,2.287,14.4,14.4,0,0,1-.3,2.368,9.349,9.349,0,0,1-3.84,6.458,6.566,6.566,0,0,1-1.76.809,6.354,6.354,0,0,1-2.24.283,4.56,4.56,0,0,1-1.98-.577A3.288,3.288,0,0,1,1404.05,227.854Z" transform="translate(-1395.91 -211.219)"/>
</svg>
