<svg xmlns="http://www.w3.org/2000/svg" width="32" height="30.5" viewBox="0 0 32 30.5">
  <defs>
    <style>
      .cls-1 {
        fill: #aee0d2;
        fill-rule: evenodd;
      }
    </style>
  </defs>
  <path id="ALARM" class="cls-1" d="M1132.74,545.5a15.724,15.724,0,0,0-8.24-8.243A5.868,5.868,0,0,1,1132.74,545.5Zm-0.24,6.5a14.435,14.435,0,0,1-3.96,9.94l2.03,2.028a1.512,1.512,0,0,1,.43,1.049,1.481,1.481,0,0,1-2.53,1.048l-2.18-2.178a14.464,14.464,0,0,1-16.57.01l-2.16,2.163a1.5,1.5,0,1,1-2.12-2.121l2.01-2.012A14.494,14.494,0,1,1,1132.5,552ZM1118,540.5a11.5,11.5,0,1,0,11.5,11.5A11.5,11.5,0,0,0,1118,540.5Zm6,13h-6a1.5,1.5,0,0,1-1.5-1.5v-8a1.5,1.5,0,0,1,3,0v6.5h4.5A1.5,1.5,0,0,1,1124,553.5Zm-20.71-7.795A5.93,5.93,0,0,1,1102,542a6,6,0,0,1,9.71-4.713A16.018,16.018,0,0,0,1103.29,545.705Z" transform="translate(-1102 -536)"/>
</svg>
