<svg xmlns="http://www.w3.org/2000/svg" width="32" height="32" viewBox="0 0 32 32">
  <defs>
    <style>
      .cls-1 {
        fill: #aee0d2;
        fill-rule: evenodd;
      }
    </style>
  </defs>
  <path id="LINE_GRAPH" data-name="LINE GRAPH" class="cls-1" d="M1368.5,559h-29a1.5,1.5,0,0,1-1.5-1.5v-29a1.5,1.5,0,0,1,1.5-1.5h29a1.5,1.5,0,0,1,1.5,1.5v29A1.5,1.5,0,0,1,1368.5,559Zm-1.5-29h-26v26h26V530Zm-23.78,13.239-0.01,0,4-2.5h0.01a1.444,1.444,0,0,1,.78-0.222,1.492,1.492,0,0,1,.84.258l0.01-.009,6.63,4.42,7.63-5.391a1.5,1.5,0,1,1,1.77,2.426h0l-8.5,6h0a1.5,1.5,0,0,1-.88.284,1.476,1.476,0,0,1-.86-0.272l-6.66-4.438-3.13,1.96A1.5,1.5,0,1,1,1343.22,543.239Z" transform="translate(-1338 -527)"/>
</svg>
