<svg xmlns="http://www.w3.org/2000/svg" width="31" height="28" viewBox="0 0 31 28">
  <defs>
    <style>
      .cls-1 {
        fill: #aee0d2;
        fill-rule: evenodd;
      }
    </style>
  </defs>
  <path id="COMPUTER_OK" data-name="COMPUTER / OK" class="cls-1" d="M1236,495h-9.5v2.5l2,2V500h-13v-0.5l2-2V495H1208a1.5,1.5,0,0,1-1.5-1.5v-20a1.5,1.5,0,0,1,1.5-1.5h28a1.5,1.5,0,0,1,1.5,1.5v20A1.5,1.5,0,0,1,1236,495Zm-0.5-21h-27v17h27V474Zm-16.5,7a1.5,1.5,0,0,1,1.06.439h0l0.94,0.939,2.94-2.939h0a1.5,1.5,0,1,1,2.12,2.122h0l-4,4h0a1.5,1.5,0,0,1-2.12,0h0l-2-2h0A1.5,1.5,0,0,1,1219,481Z" transform="translate(-1206.5 -472)"/>
</svg>
