<svg xmlns="http://www.w3.org/2000/svg" width="32" height="32" viewBox="0 0 32 32">
  <defs>
    <style>
      .cls-1 {
        fill: #aee0d2;
        fill-rule: evenodd;
      }
    </style>
  </defs>
  <path id="BOOK_2" data-name="BOOK 2" class="cls-1" d="M1254.06,591.889l-14.47,5.988a1.477,1.477,0,0,1-1.18,0l-14.47-5.988a1.5,1.5,0,0,1-.94-1.389v-23a1.5,1.5,0,0,1,1.5-1.5,1.468,1.468,0,0,1,.57.114h0.01s0,0,.01,0l13.91,5.757,13.91-5.757,0.01,0h0.01a1.468,1.468,0,0,1,.57-0.114,1.5,1.5,0,0,1,1.5,1.5v23A1.5,1.5,0,0,1,1254.06,591.889ZM1237.5,574.5l-11.5-4.759V589.5l11.5,4.759V574.5Zm14.5-4.759-11.5,4.759v19.753L1252,589.5V569.744Zm-9.12,6.89,5.5-2.5h0a1.5,1.5,0,1,1,1.24,2.731h0l-5.5,2.5h0A1.5,1.5,0,1,1,1242.88,576.634Zm0,5.5h0l5.5-2.5h0a1.5,1.5,0,1,1,1.24,2.731l-5.5,2.5h0A1.5,1.5,0,1,1,1242.88,582.134Zm0,5.5h0l5.5-2.5h0a1.5,1.5,0,1,1,1.24,2.731h0l-5.5,2.5h0A1.5,1.5,0,1,1,1242.88,587.634ZM1229,574a1.5,1.5,0,0,1,.62.134h0l5.5,2.5h0a1.5,1.5,0,1,1-1.24,2.731h0l-5.5-2.5h0A1.5,1.5,0,0,1,1229,574Zm0,5.5a1.5,1.5,0,0,1,.62.134h0l5.5,2.5h0a1.5,1.5,0,1,1-1.24,2.731h0l-5.5-2.5h0A1.5,1.5,0,0,1,1229,579.5Zm0,5.5a1.5,1.5,0,0,1,.62.134h0l5.5,2.5h0a1.5,1.5,0,1,1-1.24,2.731h0l-5.5-2.5h0A1.5,1.5,0,0,1,1229,585Z" transform="translate(-1223 -566)"/>
</svg>
