<svg xmlns="http://www.w3.org/2000/svg" width="32" height="30.5" viewBox="0 0 32 30.5">
  <defs>
    <style>
      .cls-1 {
        fill: #aee0d2;
        fill-rule: evenodd;
      }
    </style>
  </defs>
  <path id="HOME" class="cls-1" d="M1420,468.5a1.5,1.5,0,0,1-2.52,1.094v0l-13.44-13.439h0l-0.04-.037h0l-13.45,13.447h0A1.5,1.5,0,0,1,1388,468.5a1.51,1.51,0,0,1,.46-1.081l14.46-14.459a1.5,1.5,0,0,1,1.08-.46h0c0.03,0,.05,0,0.08,0h0.01c0.02,0,.05,0,0.07.006h0a1.509,1.509,0,0,1,.94.468h0l5.9,5.9V457.5a1.5,1.5,0,0,1,3,0v4.378l5.6,5.6-0.01,0A1.494,1.494,0,0,1,1420,468.5Zm-3,2.5v10.5a1.5,1.5,0,0,1-1.5,1.5h-3V471h-6v12h-14a1.5,1.5,0,0,1-1.5-1.5V471l13-13Zm-15.5,0h-6v6h6v-6Z" transform="translate(-1388 -452.5)"/>
</svg>
