<svg xmlns="http://www.w3.org/2000/svg" width="17.625" height="14.031" viewBox="0 0 17.625 14.031">
  <defs>
    <style>
      .cls-1 {
        fill: #fff;
        fill-rule: evenodd;
      }
    </style>
  </defs>
  <path id="SHOPPING_CART" data-name="SHOPPING CART" class="cls-1" d="M935.726,424.663h0l-2.475,5.5h0a0.824,0.824,0,0,1-.7.485h0l-7.128.475,0.412,1.176H933.6a1.651,1.651,0,1,1-1.65,1.651h-7.7a1.65,1.65,0,1,1-1.65-1.651h1.491l-3.176-9.074h-1.89a0.825,0.825,0,0,1,0-1.65H921.5a0.824,0.824,0,0,1,.776.553h0l0.48,1.373h12.216A0.822,0.822,0,0,1,935.726,424.663Zm-12.389.487,1.525,4.357,7.089-.473,1.748-3.884H923.337Z" transform="translate(-918.188 -421.563)"/>
</svg>
