<svg xmlns="http://www.w3.org/2000/svg" width="31.94" height="22.531" viewBox="0 0 31.94 22.531">
  <defs>
    <style>
      .cls-1 {
        fill: #fff;
        fill-rule: evenodd;
      }
    </style>
  </defs>
  <path id="USERS" class="cls-1" d="M1142.95,526.5v0a1,1,0,0,1-.99.992h-7.42a1.23,1.23,0,0,0,.97-1.2v0h0.01s0-4.5-3.31-6.142a5.933,5.933,0,0,0-2.2-.732l0.02-1.95a3.668,3.668,0,0,1-1.01-2.431c-0.49.14-.64-0.564-0.67-1.012-0.03-.431-0.28-1.783.31-1.661a12.3,12.3,0,0,1-.17-2.147,3.9,3.9,0,0,1,3.86-3.207c2.65,0.114,3.7,1.694,3.85,3.206a12.279,12.279,0,0,1-.17,2.146c0.58-.12.33,1.228,0.3,1.661-0.03.448-.19,1.149-0.67,1.009a3.643,3.643,0,0,1-1.01,2.426l0.02,1.948a27.68,27.68,0,0,0,2.54,1.127c2.06,0.851,1.42.214,3.09,1.045,2.65,1.314,2.65,4.927,2.65,4.927h0Zm-14.93-6.663c2.27,0.935,1.56.235,3.4,1.15,2.91,1.443,2.91,5.415,2.91,5.415h0v0a1.09,1.09,0,0,1-1.09,1.089h-21.15a1.09,1.09,0,0,1-1.09-1.089v0h0s0-3.972,2.91-5.417c1.84-.913,1.13-0.171,3.4-1.106a25.123,25.123,0,0,0,2.79-1.26l0.03-2.152a4.038,4.038,0,0,1-1.12-2.67c-0.53.153-.7-0.621-0.73-1.113-0.03-.475-0.31-1.96.34-1.825a12.978,12.978,0,0,1-.18-2.359,4.28,4.28,0,0,1,4.24-3.528c2.91,0.126,4.07,1.863,4.23,3.525a13.171,13.171,0,0,1-.19,2.359c0.65-.132.36,1.35,0.33,1.825-0.03.493-.2,1.263-0.73,1.11a4.038,4.038,0,0,1-1.11,2.666l0.02,2.142S1125.76,518.906,1128.02,519.84Z" transform="translate(-1111 -504.969)"/>
</svg>
