<svg xmlns="http://www.w3.org/2000/svg" width="30" height="30" viewBox="0 0 30 30">
  <defs>
    <style>
      .cls-1 {
        fill: #aee0d2;
        fill-rule: evenodd;
      }
    </style>
  </defs>
  <path id="PICTURE" class="cls-1" d="M1149,531a1.5,1.5,0,0,1-1,1.407v1.683a1.5,1.5,0,1,1-1.91,1.909h-1.68a1.494,1.494,0,0,1-2.82,0h-1.68a1.494,1.494,0,0,1-2.82,0h-1.68a1.494,1.494,0,0,1-2.82,0h-1.68a1.494,1.494,0,0,1-2.82,0h-1.68a1.494,1.494,0,0,1-2.82,0h-1.68a1.5,1.5,0,1,1-1.91-1.909v-1.683a1.491,1.491,0,0,1,0-2.816v-1.683a1.492,1.492,0,0,1,0-2.817v-1.684a1.492,1.492,0,0,1,0-2.817v-1.683a1.491,1.491,0,0,1,0-2.815v-1.685a1.491,1.491,0,0,1,0-2.816v-1.685a1.5,1.5,0,1,1,1.91-1.906h1.68a1.494,1.494,0,0,1,2.82,0h1.68a1.494,1.494,0,0,1,2.82,0h1.68a1.494,1.494,0,0,1,2.82,0h1.68a1.494,1.494,0,0,1,2.82,0h1.68a1.494,1.494,0,0,1,2.82,0h1.68a1.5,1.5,0,1,1,1.91,1.906v1.685a1.491,1.491,0,0,1,0,2.816v1.685a1.491,1.491,0,0,1,0,2.815v1.683a1.492,1.492,0,0,1,0,2.817v1.684a1.492,1.492,0,0,1,0,2.817v1.683A1.5,1.5,0,0,1,1149,531Zm-4-20h-22v22h22V511Zm-13,16,7-8.5,4.5,7v6h-19l6-6Zm-3-7a3,3,0,1,1,3-3A3,3,0,0,1,1129,520Z" transform="translate(-1119 -507)"/>
</svg>
