<svg xmlns="http://www.w3.org/2000/svg" width="28" height="32" viewBox="0 0 28 32">
  <defs>
    <style>
      .cls-1 {
        fill: #aee0d2;
        fill-rule: evenodd;
      }
    </style>
  </defs>
  <path id="EQUALIZER" class="cls-1" d="M1482.5,510.5h-3a1.5,1.5,0,0,1-1.5-1.5v-6a1.5,1.5,0,0,1,1.5-1.5h3a1.5,1.5,0,0,1,1.5,1.5v6A1.5,1.5,0,0,1,1482.5,510.5Zm-3-15a1.5,1.5,0,0,1,3,0V500h-3v-4.5Zm-8,23h-3a1.5,1.5,0,0,1-1.5-1.5v-6a1.5,1.5,0,0,1,1.5-1.5h3a1.5,1.5,0,0,1,1.5,1.5v6A1.5,1.5,0,0,1,1471.5,518.5Zm-3-23a1.5,1.5,0,0,1,3,0V508h-3V495.5Zm-8,19h-3a1.5,1.5,0,0,1-1.5-1.5v-6a1.5,1.5,0,0,1,1.5-1.5h3a1.5,1.5,0,0,1,1.5,1.5v6A1.5,1.5,0,0,1,1460.5,514.5Zm-3-19a1.5,1.5,0,0,1,3,0V504h-3v-8.5Zm3,29a1.5,1.5,0,1,1-3,0V516h3v8.5Zm11,0a1.5,1.5,0,1,1-3,0V520h3v4.5Zm11,0a1.5,1.5,0,1,1-3,0V512h3v12.5Z" transform="translate(-1456 -494)"/>
</svg>
