<svg xmlns="http://www.w3.org/2000/svg" width="32" height="32" viewBox="0 0 32 32">
  <defs>
    <style>
      .cls-1 {
        fill: #aee0d2;
        fill-rule: evenodd;
      }
    </style>
  </defs>
  <path id="BULLSEYE" class="cls-1" d="M1347,898a16,16,0,1,1,16-16A16,16,0,0,1,1347,898Zm0-29a13,13,0,1,0,13,13A13,13,0,0,0,1347,869Zm0,22.5a9.5,9.5,0,1,1,9.5-9.5A9.5,9.5,0,0,1,1347,891.5Zm0-16a6.5,6.5,0,1,0,6.5,6.5A6.5,6.5,0,0,0,1347,875.5Zm0,9.5a3,3,0,1,1,3-3A3,3,0,0,1,1347,885Z" transform="translate(-1331 -866)"/>
</svg>
